<svg version="1.1" xmlns="http://www.w3.org/2000/svg" viewBox="0 0 500 500" preserveAspectRatio="xMidYMid meet" xmlns:xlink="http://www.w3.org/1999/xlink" xmlns:svgjs="http://svgjs.dev/svgjs" xmlns:svgjs="http://svgjs.dev/svgjs">
<path d="M0 0 C1.551 -0.031 1.551 -0.031 3.133 -0.062 C10.379 -0.099 15.781 0.319 21.25 5.5 C23.236 8.86 23.734 11.36 23.875 15.25 C22.938 17.688 22.938 17.688 21.875 19.25 C21.215 19.25 20.555 19.25 19.875 19.25 C19.875 19.91 19.875 20.57 19.875 21.25 C20.535 21.25 21.195 21.25 21.875 21.25 C24.518 25.479 25.415 28.51 24.59 33.352 C23.273 36.848 20.951 38.22 17.875 40.25 C14.578 41.349 12.145 41.364 8.676 41.348 C7.467 41.344 6.259 41.341 5.014 41.338 C3.12 41.325 3.12 41.325 1.188 41.312 C-0.724 41.306 -0.724 41.306 -2.674 41.299 C-5.824 41.287 -8.975 41.271 -12.125 41.25 C-12.15 35.572 -12.168 29.893 -12.18 24.215 C-12.185 22.282 -12.192 20.349 -12.2 18.415 C-12.213 15.643 -12.218 12.87 -12.223 10.098 C-12.228 9.228 -12.233 8.358 -12.238 7.462 C-12.238 5.391 -12.187 3.32 -12.125 1.25 C-9.673 -1.202 -3.29 0.016 0 0 Z M-2.125 9.25 C-2.812 11.741 -3.125 13.629 -3.125 16.25 C-0.855 16.331 1.416 16.389 3.688 16.438 C5.584 16.49 5.584 16.49 7.52 16.543 C10.841 16.558 10.841 16.558 12.824 14.738 C13.171 14.247 13.518 13.756 13.875 13.25 C11.597 10.442 10.513 9.333 6.859 8.859 C5.258 8.929 5.258 8.929 3.625 9 C2.547 9.036 1.47 9.072 0.359 9.109 C-0.46 9.156 -1.28 9.202 -2.125 9.25 Z M-3.125 25.25 C-3.125 27.56 -3.125 29.87 -3.125 32.25 C2.155 32.25 7.435 32.25 12.875 32.25 C13.535 30.93 14.195 29.61 14.875 28.25 C13.86 26.602 13.86 26.602 11.875 25.25 C9.225 25.033 6.824 24.966 4.188 25.062 C3.486 25.076 2.784 25.09 2.061 25.104 C0.332 25.139 -1.397 25.193 -3.125 25.25 Z " fill="#06a2e1" transform="translate(409.125,228.75)" id="SvgjsPath1000"></path>
<path d="M0 0 C4.317 0.498 5.456 2.139 8.25 5.375 C9.013 6.097 9.776 6.819 10.562 7.562 C12.25 9.375 12.25 9.375 12.25 11.375 C12.91 11.375 13.57 11.375 14.25 11.375 C17.094 14.573 19.627 17.99 22.25 21.375 C22.58 14.445 22.91 7.515 23.25 0.375 C26.22 0.375 29.19 0.375 32.25 0.375 C33.88 3.635 33.413 7.23 33.418 10.812 C33.423 12.066 33.423 12.066 33.428 13.345 C33.433 15.114 33.435 16.883 33.435 18.651 C33.437 21.364 33.456 24.076 33.475 26.789 C33.478 28.505 33.48 30.221 33.48 31.938 C33.488 32.752 33.495 33.567 33.502 34.406 C33.479 40.146 33.479 40.146 31.25 42.375 C27.244 42.288 25.703 41.84 22.875 38.938 C21.25 36.375 21.25 36.375 21.25 34.375 C20.59 34.375 19.93 34.375 19.25 34.375 C15.25 29.904 15.25 29.904 15.25 27.375 C14.59 27.375 13.93 27.375 13.25 27.375 C11.27 24.735 9.29 22.095 7.25 19.375 C6.92 26.635 6.59 33.895 6.25 41.375 C2.95 41.375 -0.35 41.375 -3.75 41.375 C-3.775 35.697 -3.793 30.018 -3.805 24.34 C-3.81 22.407 -3.817 20.474 -3.825 18.54 C-3.838 15.768 -3.843 12.995 -3.848 10.223 C-3.853 9.353 -3.858 8.483 -3.863 7.587 C-3.863 5.516 -3.812 3.445 -3.75 1.375 C-2.75 0.375 -2.75 0.375 0 0 Z " fill="#06a2e1" transform="translate(144.75,228.625)" id="SvgjsPath1001"></path>
<path d="M0 0 C1.551 -0.031 1.551 -0.031 3.133 -0.062 C10.826 -0.102 15.804 0.637 21.812 5.75 C24.563 9.405 24.571 13.174 24.371 17.621 C23.589 21.768 21.98 23.433 18.875 26.25 C17.885 26.91 16.895 27.57 15.875 28.25 C19.369 31.846 22.986 35.085 26.875 38.25 C26.215 39.57 25.555 40.89 24.875 42.25 C18.06 42.967 18.06 42.967 14.785 40.984 C13.002 39.482 11.364 38.046 9.875 36.25 C9.875 35.59 9.875 34.93 9.875 34.25 C9.215 34.25 8.555 34.25 7.875 34.25 C7.875 33.59 7.875 32.93 7.875 32.25 C6.885 31.92 5.895 31.59 4.875 31.25 C2.559 27.776 2.279 26.336 2.875 22.25 C5.968 19.687 8.938 18.812 12.875 18.25 C12.875 15.94 12.875 13.63 12.875 11.25 C5.45 10.26 5.45 10.26 -2.125 9.25 C-2.125 19.81 -2.125 30.37 -2.125 41.25 C-5.425 41.25 -8.725 41.25 -12.125 41.25 C-12.15 35.572 -12.168 29.893 -12.18 24.215 C-12.185 22.282 -12.192 20.349 -12.2 18.415 C-12.213 15.643 -12.218 12.87 -12.223 10.098 C-12.228 9.228 -12.233 8.358 -12.238 7.462 C-12.238 5.391 -12.187 3.32 -12.125 1.25 C-9.673 -1.202 -3.29 0.016 0 0 Z " fill="#06a2e1" transform="translate(234.125,228.75)" id="SvgjsPath1002"></path>
<path d="M0 0 C1.236 0.017 1.236 0.017 2.496 0.035 C3.322 0.044 4.149 0.053 5 0.062 C5.638 0.074 6.276 0.086 6.934 0.098 C11.87 9.051 16.491 18.139 20.934 27.348 C21.426 28.36 21.919 29.372 22.427 30.414 C22.883 31.367 23.339 32.319 23.809 33.301 C24.219 34.153 24.628 35.006 25.051 35.884 C25.934 38.098 25.934 38.098 25.934 41.098 C24.524 41.402 23.105 41.665 21.684 41.91 C20.895 42.061 20.106 42.212 19.293 42.367 C16.934 42.098 16.934 42.098 14.926 40.242 C12.242 36.006 10.288 31.572 8.309 26.973 C7.527 25.177 6.743 23.383 5.957 21.59 C5.616 20.799 5.275 20.009 4.923 19.195 C3.892 16.876 3.892 16.876 1.934 14.098 C1.414 15.209 0.895 16.32 0.359 17.465 C-3.355 25.393 -7.101 33.291 -11.066 41.098 C-14.366 41.098 -17.666 41.098 -21.066 41.098 C-20.464 37.545 -19.516 34.531 -18.027 31.254 C-17.615 30.343 -17.202 29.432 -16.777 28.493 C-16.336 27.537 -15.896 26.582 -15.441 25.598 C-14.994 24.62 -14.546 23.642 -14.084 22.634 C-3.704 0.175 -3.704 0.175 0 0 Z " fill="#06a2e1" transform="translate(366.06640625,228.90234375)" id="SvgjsPath1003"></path>
<path d="M0 0 C3.19 -0.651 5.832 -0.83 9 0 C13.303 4.231 15.909 9.394 18 15 C18.66 15 19.32 15 20 15 C20.385 14.188 20.385 14.188 20.777 13.359 C27.244 0.881 27.244 0.881 32.457 -0.785 C34.829 -0.812 36.734 -0.7 39 0 C39.66 0.66 40.32 1.32 41 2 C39.717 4.006 38.424 6.004 37.125 8 C36.76 8.572 36.395 9.145 36.02 9.734 C35.065 11.192 34.037 12.6 33 14 C32.34 14 31.68 14 31 14 C30.752 14.722 30.505 15.444 30.25 16.188 C29 19 29 19 26.969 21.125 C24.297 25.026 24.335 28.187 24.25 32.812 C24.206 33.995 24.206 33.995 24.16 35.201 C24.09 37.134 24.043 39.067 24 41 C22.521 41.027 21.042 41.046 19.562 41.062 C18.327 41.08 18.327 41.08 17.066 41.098 C15 41 15 41 14 40 C14 38.159 14.002 36.317 14.015 34.476 C13.947 23.876 11.209 18.893 4 11 C2.143 8.711 0.567 6.507 -1 4 C-0.617 1.812 -0.617 1.812 0 0 Z " fill="#06a2e1" transform="translate(264,229)" id="SvgjsPath1004"></path>
<path d="M0 0 C1.434 0 2.867 0.006 4.301 0.016 C5.43 0.018 5.43 0.018 6.583 0.02 C8.998 0.026 11.413 0.038 13.828 0.051 C15.461 0.056 17.095 0.061 18.728 0.065 C22.741 0.076 26.753 0.093 30.765 0.114 C32.132 2.846 31.894 5.096 31.765 8.114 C31.435 8.444 31.105 8.774 30.765 9.114 C26.805 9.114 22.845 9.114 18.765 9.114 C18.765 19.344 18.765 29.574 18.765 40.114 C14.765 42.114 14.765 42.114 8.765 41.114 C8.765 30.554 8.765 19.994 8.765 9.114 C4.475 9.114 0.185 9.114 -4.235 9.114 C-4.332 2.961 -4.332 2.961 -4.235 1.114 C-3.235 0.114 -3.235 0.114 0 0 Z " fill="#06a2e1" transform="translate(186.234619140625,228.886474609375)" id="SvgjsPath1005"></path>
<path d="M0 0 C0 2.31 0 4.62 0 7 C-1.291 7.44 -2.583 7.877 -3.875 8.312 C-4.699 8.594 -5.522 8.875 -6.371 9.164 C-9 10 -9 10 -11.473 10.586 C-20.099 12.691 -27.359 18.069 -32.84 25.082 C-35.696 29.804 -37.816 34.942 -40 40 C-42.97 40 -45.94 40 -49 40 C-50.267 30.772 -45.359 23.654 -40.105 16.375 C-35.505 10.828 -30.385 7.263 -24 4 C-23.257 3.609 -22.515 3.219 -21.75 2.816 C-15.303 -0.327 -6.587 -4.084 0 0 Z " fill="#06a2e1" transform="translate(116,231)" id="SvgjsPath1006"></path>
<path d="M0 0 C1 1 1 1 1.114 3.959 C1.108 5.253 1.103 6.546 1.098 7.879 C1.096 8.566 1.095 9.252 1.093 9.96 C1.088 12.161 1.075 14.362 1.062 16.562 C1.057 18.051 1.053 19.54 1.049 21.029 C1.039 24.686 1.019 28.343 1 32 C7.93 32 14.86 32 22 32 C23 36 23 36 22 41 C11.77 41 1.54 41 -9 41 C-9 27.8 -9 14.6 -9 1 C-6.018 -0.491 -3.284 -0.119 0 0 Z " fill="#06a2e1" transform="translate(318,229)" id="SvgjsPath1007"></path>
<path d="M0 0 C7.59 0 15.18 0 23 0 C20.602 2.398 19.667 2.343 16.375 2.625 C15.558 2.7 14.74 2.775 13.898 2.852 C13.272 2.901 12.645 2.95 12 3 C12 3.66 12 4.32 12 5 C12.99 5.33 13.98 5.66 15 6 C12.69 6.33 10.38 6.66 8 7 C6.684 10.422 6.684 10.422 7 16 C13.27 15.67 19.54 15.34 26 15 C26 15.66 26 16.32 26 17 C20.375 18.125 20.375 18.125 17 17 C16.67 17.99 16.34 18.98 16 20 C18.31 20.33 20.62 20.66 23 21 C23 21.66 23 22.32 23 23 C18.05 23 13.1 23 8 23 C8 26.3 8 29.6 8 33 C9.65 33.66 11.3 34.32 13 35 C13 35.66 13 36.32 13 37 C15.64 37.66 18.28 38.32 21 39 C21.33 38.34 21.66 37.68 22 37 C23.98 37 25.96 37 28 37 C27.67 37.99 27.34 38.98 27 40 C18.09 40 9.18 40 0 40 C0 26.8 0 13.6 0 0 Z M30 34 C30.66 34.66 31.32 35.32 32 36 C30.68 36.33 29.36 36.66 28 37 C28 36.34 28 35.68 28 35 C28.66 34.67 29.32 34.34 30 34 Z " fill="#06a2e1" transform="translate(397,230)" id="SvgjsPath1008"></path>
<path d="M0 0 C5.94 0 11.88 0 18 0 C18 0.33 18 0.66 18 1 C16.35 1.33 14.7 1.66 13 2 C17.29 2 21.58 2 26 2 C25.34 3.65 24.68 5.3 24 7 C19.05 7 14.1 7 9 7 C9 9.995 9.121 12.984 9.219 15.977 C9.241 16.662 9.263 17.347 9.286 18.053 C9.357 20.244 9.429 22.434 9.5 24.625 C9.548 26.109 9.596 27.594 9.645 29.078 C9.763 32.719 9.881 36.359 10 40 C6.7 40 3.4 40 0 40 C0 26.8 0 13.6 0 0 Z M6 9 C6.33 17.58 6.66 26.16 7 35 C7.33 35 7.66 35 8 35 C8 26.42 8 17.84 8 9 C7.34 9 6.68 9 6 9 Z M25 6 C25.66 6 26.32 6 27 6 C27.33 7.32 27.66 8.64 28 10 C26.68 9.34 25.36 8.68 24 8 C24.33 7.34 24.66 6.68 25 6 Z " fill="#06a2e1" transform="translate(222,230)" id="SvgjsPath1009"></path>
<path d="M0 0 C1.522 3.043 1.239 5.654 1 9 C-2 11 -2 11 -5.375 11.938 C-8.726 12.92 -11.073 14.16 -14 16 C-14.66 16 -15.32 16 -16 16 C-16 16.66 -16 17.32 -16 18 C-16.66 18 -17.32 18 -18 18 C-18.289 18.763 -18.578 19.526 -18.875 20.312 C-20 23 -20 23 -22 26 C-24.164 26.293 -24.164 26.293 -26.625 26.188 C-27.851 26.147 -27.851 26.147 -29.102 26.105 C-29.728 26.071 -30.355 26.036 -31 26 C-31.494 18.916 -28.478 15.216 -24 10 C-17.19 3.629 -9.394 0 0 0 Z " fill="#06a2e1" transform="translate(115,245)" id="SvgjsPath1010"></path>
<path d="M0 0 C1.434 0 2.867 0.006 4.301 0.016 C5.43 0.018 5.43 0.018 6.583 0.02 C8.998 0.026 11.413 0.038 13.828 0.051 C15.461 0.056 17.095 0.061 18.728 0.065 C22.741 0.076 26.753 0.093 30.765 0.114 C32.132 2.846 31.894 5.096 31.765 8.114 C31.435 8.444 31.105 8.774 30.765 9.114 C26.805 9.114 22.845 9.114 18.765 9.114 C18.765 19.344 18.765 29.574 18.765 40.114 C14.765 42.114 14.765 42.114 8.765 41.114 C8.765 30.554 8.765 19.994 8.765 9.114 C4.475 9.114 0.185 9.114 -4.235 9.114 C-4.332 2.961 -4.332 2.961 -4.235 1.114 C-3.235 0.114 -3.235 0.114 0 0 Z M-1.235 4.114 C-0.39 6.388 -0.39 6.388 2.269 6.965 C3.279 7.22 4.288 7.476 5.328 7.739 C8.019 8.419 8.019 8.419 10.765 9.114 C10.765 15.714 10.765 22.314 10.765 29.114 C11.425 29.114 12.085 29.114 12.765 29.114 C12.765 29.774 12.765 30.434 12.765 31.114 C12.105 31.114 11.445 31.114 10.765 31.114 C10.765 33.754 10.765 36.394 10.765 39.114 C12.415 39.114 14.065 39.114 15.765 39.114 C16.695 35.957 16.894 33.118 16.898 29.832 C16.899 28.826 16.901 27.819 16.902 26.781 C16.896 25.213 16.896 25.213 16.89 23.614 C16.894 22.568 16.898 21.523 16.902 20.446 C16.901 19.439 16.9 18.432 16.898 17.395 C16.897 16.478 16.896 15.56 16.895 14.615 C16.775 12.303 16.417 10.328 15.765 8.114 C20.489 7.342 24.981 7.016 29.765 7.114 C29.765 5.464 29.765 3.814 29.765 2.114 C25.536 2.055 21.307 2.02 17.078 1.989 C15.88 1.972 14.682 1.955 13.447 1.938 C12.29 1.931 11.133 1.925 9.941 1.918 C8.878 1.908 7.815 1.897 6.72 1.886 C3.684 2.12 1.509 2.831 -1.235 4.114 Z " fill="#06a2e1" transform="translate(186.234619140625,228.886474609375)" id="SvgjsPath1011"></path>
<path d="M0 0 C0.33 0.99 0.66 1.98 1 3 C0.34 3.66 -0.32 4.32 -1 5 C-0.67 5.99 -0.34 6.98 0 8 C0.33 8 0.66 8 1 8 C2.535 18.358 -2.375 27.563 -8 36 C-10.383 36.293 -10.383 36.293 -13.125 36.188 C-14.49 36.147 -14.49 36.147 -15.883 36.105 C-16.581 36.071 -17.28 36.036 -18 36 C-17.388 32.312 -16.348 29.231 -14.785 25.84 C-14.346 24.881 -13.907 23.923 -13.455 22.936 C-12.996 21.946 -12.536 20.957 -12.062 19.938 C-11.607 18.944 -11.151 17.951 -10.682 16.928 C-9.464 14.28 -8.243 11.636 -7 9 C-6.676 8.293 -6.351 7.586 -6.017 6.858 C-4.5 4.087 -2.277 2.157 0 0 Z M-3 10 C-3 10.66 -3 11.32 -3 12 C-3.99 12.495 -3.99 12.495 -5 13 C-3.02 13.99 -3.02 13.99 -1 15 C-1.33 13.35 -1.66 11.7 -2 10 C-2.33 10 -2.66 10 -3 10 Z " fill="#06a2e1" transform="translate(363,234)" id="SvgjsPath1012"></path>
<path d="M0 0 C1.32 0 2.64 0 4 0 C4 11.55 4 23.1 4 35 C2.02 35.495 2.02 35.495 0 36 C-3.5 33.76 -4.619 29.75 -6 26 C-6 24.68 -6 23.36 -6 22 C-5.34 22 -4.68 22 -4 22 C-2.522 17.566 -2.611 13.093 -2.379 8.445 C-2.026 5.237 -1.363 2.902 0 0 Z M-15 11 C-13.515 11.99 -13.515 11.99 -12 13 C-12 13.99 -12 14.98 -12 16 C-11.34 16 -10.68 16 -10 16 C-10 16.66 -10 17.32 -10 18 C-9.01 18 -8.02 18 -7 18 C-6.67 19.32 -6.34 20.64 -6 22 C-7.32 22.33 -8.64 22.66 -10 23 C-14.923 17.831 -14.923 17.831 -15.312 13.625 C-15.209 12.759 -15.106 11.893 -15 11 Z " fill="#06a2e1" transform="translate(171,232)" id="SvgjsPath1013"></path>
<path d="M0 0 C2.875 0.125 2.875 0.125 6 1 C7.852 3.408 9 4.927 9 8 C10.32 8.66 11.64 9.32 13 10 C10.79 12.541 9.26 13.306 6 14 C5.803 16.52 5.617 19.041 5.438 21.562 C5.381 22.267 5.325 22.971 5.268 23.697 C5.024 27.222 4.978 30.468 5.535 33.965 C5.689 34.966 5.842 35.968 6 37 C5 38 5 38 2.5 38.125 C0 38 0 38 -1 37 C-1.101 34.345 -1.14 31.717 -1.133 29.062 C-1.134 28.267 -1.135 27.472 -1.136 26.653 C-1.136 24.968 -1.135 23.283 -1.13 21.599 C-1.125 19.011 -1.13 16.424 -1.137 13.836 C-1.136 12.203 -1.135 10.57 -1.133 8.938 C-1.135 8.158 -1.137 7.379 -1.139 6.576 C-1.115 1.115 -1.115 1.115 0 0 Z " fill="#06a2e1" transform="translate(144,231)" id="SvgjsPath1014"></path>
<path d="M0 0 C1.98 0 3.96 0 6 0 C-3.1 14.1 -3.1 14.1 -8 19 C-8.237 21.099 -8.415 23.205 -8.562 25.312 C-8.646 26.464 -8.73 27.615 -8.816 28.801 C-8.954 31.197 -9 33.599 -9 36 C-10.65 35.67 -12.3 35.34 -14 35 C-14.66 28.73 -15.32 22.46 -16 16 C-14.02 15.01 -12.04 14.02 -10 13 C-7.697 10.013 -6.191 7.573 -5 4 C-4.01 4 -3.02 4 -2 4 C-1.34 2.68 -0.68 1.36 0 0 Z M-17 10 C-15.515 10.99 -15.515 10.99 -14 12 C-14.66 13.32 -15.32 14.64 -16 16 C-16.66 15.67 -17.32 15.34 -18 15 C-17.67 13.35 -17.34 11.7 -17 10 Z " fill="#06a2e1" transform="translate(295,232)" id="SvgjsPath1015"></path>
<path d="M0 0 C0 2.31 0 4.62 0 7 C-5.619 8.951 -11.211 10.632 -17 12 C-16 9 -16 9 -13.938 7.875 C-10.278 6.785 -6.799 6.386 -3 6 C-3 4.35 -3 2.7 -3 1 C-3.681 1.165 -4.361 1.33 -5.062 1.5 C-8.416 2.071 -11.604 2.067 -15 2 C-15.33 2.99 -15.66 3.98 -16 5 C-16.722 5.103 -17.444 5.206 -18.188 5.312 C-21.275 6.067 -23.316 7.323 -26 9 C-27.191 9.437 -27.191 9.437 -28.406 9.883 C-36.115 13.203 -40.015 20.205 -42.992 27.68 C-44 30 -44 30 -46 32 C-46.719 34.318 -47.391 36.651 -48 39 C-45.36 39 -42.72 39 -40 39 C-40 39.33 -40 39.66 -40 40 C-42.97 40 -45.94 40 -49 40 C-50.267 30.772 -45.359 23.654 -40.105 16.375 C-35.505 10.828 -30.385 7.263 -24 4 C-23.257 3.609 -22.515 3.219 -21.75 2.816 C-15.303 -0.327 -6.587 -4.084 0 0 Z " fill="#06a2e1" transform="translate(116,231)" id="SvgjsPath1016"></path>
<path d="M0 0 C2.97 0 5.94 0 9 0 C10.63 3.26 10.163 6.855 10.168 10.438 C10.171 11.273 10.175 12.109 10.178 12.97 C10.183 14.739 10.185 16.508 10.185 18.276 C10.187 20.989 10.206 23.701 10.225 26.414 C10.228 28.13 10.23 29.846 10.23 31.562 C10.238 32.377 10.245 33.192 10.252 34.031 C10.229 39.771 10.229 39.771 8 42 C3.994 41.913 2.453 41.465 -0.375 38.562 C-2 36 -2 36 -2 34 C-2.66 34 -3.32 34 -4 34 C-4.495 32.515 -4.495 32.515 -5 31 C-0.461 32.35 0.682 33.996 3 38 C3.99 38 4.98 38 6 38 C6.33 26.45 6.66 14.9 7 3 C5.68 3.33 4.36 3.66 3 4 C1.884 7.714 1.688 11.392 1.438 15.25 C1.354 16.513 1.27 17.777 1.184 19.078 C1.123 20.042 1.062 21.007 1 22 C0.67 22 0.34 22 0 22 C0 14.74 0 7.48 0 0 Z " fill="#06a2e1" transform="translate(168,229)" id="SvgjsPath1017"></path>
<path d="M0 0 C0.694 0.035 1.387 0.071 2.102 0.107 C3.866 0.223 5.623 0.447 7.375 0.688 C7.705 1.347 8.035 2.007 8.375 2.688 C3.425 2.357 -1.525 2.028 -6.625 1.688 C-6.625 10.597 -6.625 19.507 -6.625 28.688 C-6.955 28.688 -7.285 28.688 -7.625 28.688 C-7.645 27.91 -7.665 27.133 -7.685 26.333 C-7.78 22.825 -7.89 19.319 -8 15.812 C-8.031 14.589 -8.062 13.366 -8.094 12.105 C-8.132 10.939 -8.171 9.772 -8.211 8.57 C-8.242 7.492 -8.274 6.413 -8.306 5.301 C-8.372 2.53 -8.372 2.53 -10.625 0.688 C-6.964 -0.533 -3.782 -0.259 0 0 Z M-10.625 2.688 C-9.965 2.688 -9.305 2.688 -8.625 2.688 C-8.625 11.268 -8.625 19.848 -8.625 28.688 C-8.955 28.688 -9.285 28.688 -9.625 28.688 C-9.955 20.108 -10.285 11.528 -10.625 2.688 Z M8.375 2.688 C9.365 3.018 10.355 3.347 11.375 3.688 C11.863 9.05 11.863 9.05 9.75 11.812 C7.055 13.94 4.272 15.844 1.375 17.688 C1.87 18.636 2.365 19.585 2.875 20.562 C4.375 23.688 4.375 23.688 4.375 25.688 C5.365 26.017 6.355 26.348 7.375 26.688 C7.932 27.512 8.489 28.337 9.062 29.188 C12.344 32.735 14.641 32.451 19.375 32.688 C19.375 31.697 19.375 30.707 19.375 29.688 C20.365 30.017 21.355 30.348 22.375 30.688 C21.715 32.007 21.055 33.327 20.375 34.688 C13.56 35.405 13.56 35.405 10.285 33.422 C8.502 31.919 6.864 30.483 5.375 28.688 C5.375 28.027 5.375 27.368 5.375 26.688 C4.715 26.688 4.055 26.688 3.375 26.688 C3.375 26.027 3.375 25.368 3.375 24.688 C2.385 24.358 1.395 24.027 0.375 23.688 C-1.941 20.214 -2.221 18.774 -1.625 14.688 C1.468 12.125 4.438 11.25 8.375 10.688 C8.375 8.048 8.375 5.407 8.375 2.688 Z " fill="#06a2e1" transform="translate(238.625,236.3125)" id="SvgjsPath1018"></path>
<path d="M0 0 C2.646 -0.027 5.292 -0.047 7.938 -0.062 C8.692 -0.071 9.447 -0.079 10.225 -0.088 C12.15 -0.097 14.075 -0.052 16 0 C17 1 17 1 17.133 2.812 C17.13 3.534 17.128 4.256 17.125 5 C17.129 6.083 17.129 6.083 17.133 7.188 C17 9 17 9 16 10 C13.303 10.073 10.633 10.092 7.938 10.062 C6.8 10.056 6.8 10.056 5.639 10.049 C3.759 10.037 1.88 10.019 0 10 C0 6.7 0 3.4 0 0 Z " fill="#06a2e1" transform="translate(120,245)" id="SvgjsPath1019"></path>
<path d="M0 0 C0.33 0.99 0.66 1.98 1 3 C-1.53 6.151 -3.768 6.588 -7.688 7.188 C-9.178 7.425 -9.178 7.425 -10.699 7.668 C-11.458 7.778 -12.218 7.887 -13 8 C-13.33 8.99 -13.66 9.98 -14 11 C-16.062 11.688 -16.062 11.688 -18 12 C-18 11.34 -18 10.68 -18 10 C-18.701 10.846 -19.403 11.691 -20.125 12.562 C-23 15 -23 15 -26.312 14.812 C-27.199 14.544 -28.086 14.276 -29 14 C-28.67 13.01 -28.34 12.02 -28 11 C-27.34 11 -26.68 11 -26 11 C-25.67 10.01 -25.34 9.02 -25 8 C-23.039 6.613 -23.039 6.613 -20.625 5.312 C-19.438 4.657 -19.438 4.657 -18.227 3.988 C-16 3 -16 3 -13 3 C-12.67 2.34 -12.34 1.68 -12 1 C-7.973 0.226 -4.096 -0.124 0 0 Z " fill="#06a2e1" transform="translate(113,232)" id="SvgjsPath1020"></path>
<path d="M0 0 C2.646 -0.027 5.292 -0.047 7.938 -0.062 C8.692 -0.071 9.447 -0.079 10.225 -0.088 C12.15 -0.097 14.075 -0.052 16 0 C17 1 17 1 17.125 4.438 C17 8 17 8 16 10 C13.521 10.027 11.042 10.047 8.562 10.062 C7.855 10.071 7.148 10.079 6.42 10.088 C4.613 10.097 2.806 10.052 1 10 C0 9 0 9 -0.098 6.934 C-0.086 6.11 -0.074 5.286 -0.062 4.438 C-0.053 3.611 -0.044 2.785 -0.035 1.934 C-0.024 1.296 -0.012 0.657 0 0 Z " fill="#06a2e1" transform="translate(120,261)" id="SvgjsPath1021"></path>
<path d="M0 0 C1.267 -0.014 2.534 -0.028 3.84 -0.043 C7.062 0.188 7.062 0.188 9.062 2.188 C9.25 5.75 9.25 5.75 9.062 9.188 C8.062 10.188 8.062 10.188 4.465 10.285 C2.977 10.278 1.488 10.267 0 10.25 C-1.138 10.243 -1.138 10.243 -2.299 10.236 C-4.178 10.225 -6.058 10.207 -7.938 10.188 C-7.964 8.708 -7.984 7.229 -8 5.75 C-8.012 4.926 -8.023 4.103 -8.035 3.254 C-7.817 -1.369 -3.754 0.019 0 0 Z " fill="#06a2e1" transform="translate(127.9375,228.8125)" id="SvgjsPath1022"></path>
<path d="M0 0 C0.33 0 0.66 0 1 0 C1 1.98 1 3.96 1 6 C7.93 6 14.86 6 22 6 C23 10 23 10 22 15 C15.4 15 8.8 15 2 15 C2.66 14.34 3.32 13.68 4 13 C2.68 12.01 1.36 11.02 0 10 C3.3 9.34 6.6 8.68 10 8 C6.7 7.67 3.4 7.34 0 7 C0 4.69 0 2.38 0 0 Z " fill="#06a2e1" transform="translate(318,255)" id="SvgjsPath1023"></path>
<path d="M0 0 C3.102 0.319 3.862 0.55 6.125 2.812 C4.842 4.818 3.549 6.817 2.25 8.812 C1.885 9.385 1.52 9.957 1.145 10.547 C0.19 12.004 -0.838 13.413 -1.875 14.812 C-2.535 14.812 -3.195 14.812 -3.875 14.812 C-4.102 15.534 -4.329 16.256 -4.562 17 C-6.123 20.345 -8.178 22.329 -10.875 24.812 C-11.205 23.822 -11.535 22.833 -11.875 21.812 C-10.312 19.625 -10.312 19.625 -7.875 16.812 C-6.822 15.467 -5.781 14.113 -4.75 12.75 C-4.252 12.099 -3.755 11.448 -3.242 10.777 C-1.904 8.854 -0.866 6.932 0.125 4.812 C-2.348 5.157 -2.348 5.157 -4.875 5.812 C-5.205 6.472 -5.535 7.132 -5.875 7.812 C-6.865 7.812 -7.855 7.812 -8.875 7.812 C-8.978 8.576 -9.081 9.339 -9.188 10.125 C-9.922 12.997 -10.547 14.043 -12.875 15.812 C-13.535 15.812 -14.195 15.812 -14.875 15.812 C-7.423 0.084 -7.423 0.084 0 0 Z " fill="#06a2e1" transform="translate(298.875,228.1875)" id="SvgjsPath1024"></path>
<path d="M0 0 C0 3 0 3 0 3 Z M2 0 C4.154 2.622 5.401 4.644 6 8 C6.66 8 7.32 8 8 8 C10.905 12.357 12.096 16.876 13 22 C10.69 21.67 8.38 21.34 6 21 C5.67 19.68 5.34 18.36 5 17 C4.34 17 3.68 17 3 17 C0.519 5.478 0.519 5.478 2 0 Z " fill="#06a2e1" transform="translate(376,247)" id="SvgjsPath1025"></path>
<path d="M0 0 C2.5 1.375 2.5 1.375 5 3 C5 3.66 5 4.32 5 5 C5.66 5 6.32 5 7 5 C9.428 10.827 9.617 16.776 10 23 C11.32 23.33 12.64 23.66 14 24 C13.829 23.468 13.657 22.935 13.48 22.387 C12.883 19.417 13.066 16.829 13.312 13.812 C13.391 12.746 13.47 11.68 13.551 10.582 C13.699 9.73 13.847 8.878 14 8 C14.66 7.67 15.32 7.34 16 7 C16 13.27 16 19.54 16 26 C13.03 26 10.06 26 7 26 C4.791 23.791 5.751 17.672 5.746 14.521 C5.552 8.63 4.044 6.244 0 2 C0 1.34 0 0.68 0 0 Z " fill="#06a2e1" transform="translate(272,244)" id="SvgjsPath1026"></path>
<path d="M0 0 C11.22 0 22.44 0 34 0 C35.366 2.732 35.128 4.982 35 8 C34.67 8.33 34.34 8.66 34 9 C30.04 9 26.08 9 22 9 C22 19.23 22 29.46 22 40 C21.67 40 21.34 40 21 40 C20.975 39.173 20.95 38.345 20.924 37.493 C20.808 33.745 20.685 29.998 20.562 26.25 C20.523 24.948 20.484 23.646 20.443 22.305 C20.401 21.054 20.36 19.804 20.316 18.516 C20.28 17.364 20.243 16.211 20.205 15.024 C20.035 12.523 19.72 10.389 19 8 C24.166 6.208 27.511 5.88 33 7 C33 5.35 33 3.7 33 2 C22.11 1.67 11.22 1.34 0 1 C0 0.67 0 0.34 0 0 Z " fill="#06a2e1" transform="translate(183,229)" id="SvgjsPath1027"></path>
<path d="M0 0 C1 1 1 1 1.125 4.438 C1 8 1 8 0 10 C-4.29 10 -8.58 10 -13 10 C-13 8.68 -13 7.36 -13 6 C-8.605 1.892 -6.022 -0.309 0 0 Z " fill="#06a2e1" transform="translate(115,261)" id="SvgjsPath1028"></path>
<path d="M0 0 C0.66 0 1.32 0 2 0 C2.353 4.947 1.339 7.681 -1 12 C-1.7 13.989 -2.377 15.986 -3 18 C-4.32 18 -5.64 18 -7 18 C-8.75 15.5 -8.75 15.5 -10 13 C-9.362 12.648 -8.724 12.296 -8.066 11.934 C-3.275 9.302 -3.275 9.302 -0.18 5.043 C0.134 2.93 0.134 2.93 0 0 Z M-3 18 C-2.01 18.495 -2.01 18.495 -1 19 C-1.99 19.495 -1.99 19.495 -3 20 C-3 19.34 -3 18.68 -3 18 Z M-1 19 C0.938 19.75 0.938 19.75 3 21 C3.75 23.125 3.75 23.125 4 25 C5.32 25.33 6.64 25.66 8 26 C8 26.33 8 26.66 8 27 C5.69 27 3.38 27 1 27 C-0.765 23.912 -1 22.767 -1 19 Z " fill="#06a2e1" transform="translate(249,241)" id="SvgjsPath1029"></path>
<path d="M0 0 C5.94 0 11.88 0 18 0 C18 0.33 18 0.66 18 1 C10.08 1.495 10.08 1.495 2 2 C2 13.55 2 25.1 2 37 C4.31 37.66 6.62 38.32 9 39 C8.67 38.34 8.34 37.68 8 37 C7.915 34.895 7.893 32.787 7.902 30.68 C7.906 29.423 7.909 28.166 7.912 26.871 C7.92 25.552 7.929 24.234 7.938 22.875 C7.943 21.535 7.947 20.195 7.951 18.855 C7.963 15.57 7.979 12.285 8 9 C8.33 9 8.66 9 9 9 C9.33 19.23 9.66 29.46 10 40 C6.7 40 3.4 40 0 40 C0 26.8 0 13.6 0 0 Z " fill="#06a2e1" transform="translate(222,230)" id="SvgjsPath1030"></path>
<path d="M0 0 C0.66 0 1.32 0 2 0 C0.509 3.795 -1.757 5.61 -5 8 C-4.237 8.763 -3.474 9.526 -2.688 10.312 C-1.801 11.199 -0.914 12.086 0 13 C0.897 13.773 0.897 13.773 1.812 14.562 C3 16 3 16 3 20 C0.36 20 -2.28 20 -5 20 C-5 19.67 -5 19.34 -5 19 C-3.02 18.67 -1.04 18.34 1 18 C0.01 17.67 -0.98 17.34 -2 17 C-3.006 15.337 -4.006 13.67 -5 12 C-7.07 10.217 -7.07 10.217 -9 9 C-8.938 6.688 -8.938 6.688 -8 4 C-4.5 2.25 -4.5 2.25 -1 1 C-0.67 0.67 -0.34 0.34 0 0 Z M-10 10 C-9.01 10.33 -8.02 10.66 -7 11 C-6.188 12.938 -6.188 12.938 -6 15 C-6.66 15.66 -7.32 16.32 -8 17 C-9.376 15.71 -10.708 14.373 -12 13 C-12 12.34 -12 11.68 -12 11 C-11.34 10.67 -10.68 10.34 -10 10 Z " fill="#06a2e1" transform="translate(255,249)" id="SvgjsPath1031"></path>
<path d="M0 0 C0.66 0.33 1.32 0.66 2 1 C2 1.99 2 2.98 2 4 C1.01 4 0.02 4 -1 4 C-1.33 5.32 -1.66 6.64 -2 8 C-2.99 7.67 -3.98 7.34 -5 7 C-3.478 4.371 -2.156 2.156 0 0 Z M15 2 C12.591 4.024 10.685 5.113 7.688 6.188 C4.311 7.515 2.682 9.367 0.438 12.188 C-2.596 15.941 -2.596 15.941 -6.438 16.5 C-7.283 16.335 -8.129 16.17 -9 16 C-9.33 15.01 -9.66 14.02 -10 13 C-7.028 11.101 -4.485 9.645 -1 9 C-1 7.68 -1 6.36 -1 5 C-0.34 5 0.32 5 1 5 C1.33 5.66 1.66 6.32 2 7 C2.412 6.546 2.825 6.092 3.25 5.625 C7.003 2.14 9.927 1.769 15 2 Z " fill="#06a2e1" transform="translate(95,253)" id="SvgjsPath1032"></path>
<path d="M0 0 C2 2 2 2 2.312 4.5 C2.209 5.325 2.106 6.15 2 7 C-1.101 9.067 -1.729 9.245 -5.23 9.195 C-6.434 9.186 -6.434 9.186 -7.662 9.176 C-8.495 9.159 -9.329 9.142 -10.188 9.125 C-11.032 9.116 -11.877 9.107 -12.748 9.098 C-14.832 9.074 -16.916 9.038 -19 9 C-19.977 2.945 -19.977 2.945 -20 1 C-15.154 -3.846 -5.893 -2.382 0 0 Z M-16 1 C-16.687 3.491 -17 5.379 -17 8 C-14.73 8.081 -12.459 8.139 -10.188 8.188 C-8.291 8.24 -8.291 8.24 -6.355 8.293 C-3.034 8.308 -3.034 8.308 -1.051 6.488 C-0.704 5.997 -0.357 5.506 0 5 C-2.278 2.192 -3.362 1.083 -7.016 0.609 C-8.617 0.679 -8.617 0.679 -10.25 0.75 C-11.328 0.786 -12.405 0.822 -13.516 0.859 C-14.335 0.906 -15.155 0.952 -16 1 Z " fill="#06a2e1" transform="translate(423,237)" id="SvgjsPath1033"></path>
<path d="M0 0 C1.65 0 3.3 0 5 0 C3.68 0.33 2.36 0.66 1 1 C1.036 1.735 1.071 2.47 1.108 3.228 C1.267 6.61 1.415 9.992 1.562 13.375 C1.619 14.531 1.675 15.688 1.732 16.879 C2.021 23.694 1.927 30.237 1 37 C1.949 36.959 2.897 36.918 3.875 36.875 C7 37 7 37 9 39 C5.37 39 1.74 39 -2 39 C-1.882 33.767 -1.758 28.534 -1.628 23.302 C-1.584 21.521 -1.543 19.74 -1.503 17.959 C-1.445 15.402 -1.381 12.846 -1.316 10.289 C-1.3 9.49 -1.283 8.691 -1.266 7.868 C-1.114 2.228 -1.114 2.228 0 0 Z " fill="#06a2e1" transform="translate(311,231)" id="SvgjsPath1034"></path>
<path d="M0 0 C1.98 1.65 3.96 3.3 6 5 C5.34 6.65 4.68 8.3 4 10 C3.34 9.67 2.68 9.34 2 9 C2 7.68 2 6.36 2 5 C0.004 3.004 -3.817 3.59 -6.562 3.438 C-7.273 3.394 -7.984 3.351 -8.717 3.307 C-10.478 3.2 -12.239 3.1 -14 3 C-13.814 3.784 -13.629 4.567 -13.438 5.375 C-13 8 -13 8 -14 10 C-9.05 10 -4.1 10 1 10 C-1.476 12.476 -3.027 12.616 -6.438 13.25 C-7.406 13.441 -8.374 13.632 -9.371 13.828 C-12 14 -12 14 -15 12 C-15.414 8.633 -15.131 5.403 -15 2 C-10.05 2 -5.1 2 0 2 C0 1.34 0 0.68 0 0 Z " fill="#06a2e1" transform="translate(420,251)" id="SvgjsPath1035"></path>
<path d="M0 0 C0.66 0.33 1.32 0.66 2 1 C1.979 1.928 1.959 2.856 1.938 3.812 C1.842 7.023 1.842 7.023 3 10 C3.99 10.33 4.98 10.66 6 11 C6 11.66 6 12.32 6 13 C6.99 13 7.98 13 9 13 C10.688 15.5 10.688 15.5 12 18 C11.34 18.33 10.68 18.66 10 19 C7.375 17.688 7.375 17.688 5 16 C5 15.34 5 14.68 5 14 C4.34 14 3.68 14 3 14 C1.492 12.137 1.492 12.137 -0.125 9.688 C-0.664 8.887 -1.203 8.086 -1.758 7.262 C-3 5 -3 5 -3 2 C-2.01 1.34 -1.02 0.68 0 0 Z M4 3 C5.65 4.65 7.3 6.3 9 8 C8.01 8 7.02 8 6 8 C6 7.34 6 6.68 6 6 C5.34 6 4.68 6 4 6 C4 5.01 4 4.02 4 3 Z M10 10 C11.485 10.99 11.485 10.99 13 12 C12.01 12 11.02 12 10 12 C10 11.34 10 10.68 10 10 Z " fill="#06a2e1" transform="translate(155,242)" id="SvgjsPath1036"></path>
<path d="M0 0 C7.59 0 15.18 0 23 0 C19.953 2.031 19.399 2.247 15.988 2.195 C15.231 2.189 14.474 2.182 13.693 2.176 C12.908 2.159 12.122 2.142 11.312 2.125 C10.515 2.116 9.718 2.107 8.896 2.098 C6.931 2.074 4.965 2.038 3 2 C1.969 8.774 1.85 15.405 1.875 22.25 C1.871 23.325 1.867 24.4 1.863 25.508 C1.865 26.542 1.866 27.575 1.867 28.641 C1.868 29.574 1.869 30.508 1.871 31.47 C1.989 33.794 2.343 35.775 3 38 C4.98 38.33 6.96 38.66 9 39 C9 39.33 9 39.66 9 40 C6.03 40 3.06 40 0 40 C0 26.8 0 13.6 0 0 Z " fill="#06a2e1" transform="translate(397,230)" id="SvgjsPath1037"></path>
<path d="M0 0 C0.99 0 1.98 0 3 0 C5.51 3.413 6.774 6.973 8 11 C8.33 11.99 8.66 12.98 9 14 C9.66 14 10.32 14 11 14 C13.191 21.734 13.191 21.734 12 26 C11.733 25.43 11.465 24.859 11.19 24.272 C9.983 21.701 8.773 19.132 7.562 16.562 C7.142 15.665 6.721 14.767 6.287 13.842 C5.884 12.988 5.481 12.134 5.066 11.254 C4.695 10.463 4.323 9.672 3.94 8.858 C3.139 7.035 3.139 7.035 2 6 C1.01 7.98 0.02 9.96 -1 12 C-1.33 12 -1.66 12 -2 12 C-2.178 7.452 -1.998 4.121 0 0 Z " fill="#06a2e1" transform="translate(366,237)" id="SvgjsPath1038"></path>
<path d="M0 0 C3.668 3.668 5.414 8.793 7.625 13.438 C8.141 14.5 8.656 15.563 9.188 16.658 C9.675 17.677 10.162 18.696 10.664 19.746 C11.112 20.681 11.56 21.616 12.022 22.58 C13 25 13 25 13 28 C9.976 28.653 7.1 29.139 4 29 C1.438 26.688 1.438 26.688 0 24 C0 23.34 0 22.68 0 22 C0.66 22 1.32 22 2 22 C2.33 23.32 2.66 24.64 3 26 C5.31 26.33 7.62 26.66 10 27 C9.546 26.175 9.092 25.35 8.625 24.5 C6.837 20.649 5.926 17.133 5 13 C4.34 13 3.68 13 3 13 C1.701 8.669 0.656 4.485 0 0 Z " fill="#06a2e1" transform="translate(379,242)" id="SvgjsPath1039"></path>
<path d="M0 0 C1.454 0.031 1.454 0.031 2.938 0.062 C2.298 0.248 1.659 0.434 1 0.625 C-1.38 1.935 -1.38 1.935 -1.684 4.961 C-2.267 10.001 -2.208 15.058 -2.188 20.125 C-2.191 21.092 -2.195 22.06 -2.199 23.057 C-2.193 27.837 -2.061 32.363 -1.062 37.062 C1.412 36.567 1.412 36.567 3.938 36.062 C3.938 36.722 3.938 37.382 3.938 38.062 C1.062 38.188 1.062 38.188 -2.062 38.062 C-4.588 35.537 -4.3 33.97 -4.315 30.525 C-4.308 29.773 -4.3 29.021 -4.293 28.246 C-4.293 27.474 -4.292 26.703 -4.292 25.908 C-4.289 24.276 -4.281 22.645 -4.268 21.013 C-4.25 18.507 -4.248 16.001 -4.248 13.494 C-4.243 11.911 -4.237 10.329 -4.23 8.746 C-4.229 7.992 -4.228 7.238 -4.227 6.461 C-4.169 0.085 -4.169 0.085 0 0 Z " fill="#06a2e1" transform="translate(227.0625,230.9375)" id="SvgjsPath1040"></path>
<path d="M0 0 C1.267 -0.014 2.534 -0.028 3.84 -0.043 C7.062 0.188 7.062 0.188 9.062 2.188 C9.25 5.75 9.25 5.75 9.062 9.188 C8.062 10.188 8.062 10.188 4.465 10.285 C2.977 10.278 1.488 10.267 0 10.25 C-1.138 10.243 -1.138 10.243 -2.299 10.236 C-4.178 10.225 -6.058 10.207 -7.938 10.188 C-7.964 8.708 -7.984 7.229 -8 5.75 C-8.012 4.926 -8.023 4.103 -8.035 3.254 C-7.817 -1.369 -3.754 0.019 0 0 Z M-5.938 3.188 C-6.104 5.688 -6.104 5.688 -5.938 8.188 C-4.881 9.466 -4.881 9.466 -2.469 9.32 C-1.468 9.318 -0.468 9.315 0.562 9.312 C2.063 9.316 2.063 9.316 3.594 9.32 C6.006 9.466 6.006 9.466 7.062 8.188 C7.103 6.521 7.105 4.854 7.062 3.188 C4.987 2.634 3.219 2.188 1.062 2.188 C-0.453 2.157 -0.453 2.157 -2 2.125 C-4.827 1.846 -4.827 1.846 -5.938 3.188 Z " fill="#06a2e1" transform="translate(127.9375,228.8125)" id="SvgjsPath1041"></path>
<path d="M0 0 C0.33 0.66 0.66 1.32 1 2 C0.34 1.67 -0.32 1.34 -1 1 C-0.67 0.67 -0.34 0.34 0 0 Z M-3 2 C-2.34 2.33 -1.68 2.66 -1 3 C-1.619 3.722 -2.237 4.444 -2.875 5.188 C-4.856 7.81 -5.809 9.983 -7 13 C-7.981 14.019 -8.977 15.024 -10 16 C-10 16.66 -10 17.32 -10 18 C-5.149 16.881 -2.222 15.867 1 12 C-0.125 14.972 -1.223 17.334 -3 20 C-5.164 20.293 -5.164 20.293 -7.625 20.188 C-8.851 20.147 -8.851 20.147 -10.102 20.105 C-10.728 20.071 -11.355 20.036 -12 20 C-12.391 15.051 -11.592 12.698 -8.625 8.75 C-7.999 7.899 -7.372 7.048 -6.727 6.172 C-5 4 -5 4 -3 2 Z M4 8 C4.66 8.33 5.32 8.66 6 9 C5.01 9 4.02 9 3 9 C3.33 8.67 3.66 8.34 4 8 Z M2 10 C2.33 10.66 2.66 11.32 3 12 C2.34 11.67 1.68 11.34 1 11 C1.33 10.67 1.66 10.34 2 10 Z " fill="#06a2e1" transform="translate(96,251)" id="SvgjsPath1042"></path>
<path d="M0 0 C1 1 1 1 1.114 3.041 C1.108 3.916 1.103 4.79 1.098 5.691 C1.094 6.636 1.091 7.58 1.088 8.553 C1.08 9.546 1.071 10.539 1.062 11.562 C1.058 12.56 1.053 13.557 1.049 14.584 C1.037 17.056 1.021 19.528 1 22 C0.67 22 0.34 22 0 22 C-0.061 20.796 -0.121 19.592 -0.184 18.352 C-0.268 16.776 -0.353 15.201 -0.438 13.625 C-0.477 12.831 -0.516 12.037 -0.557 11.219 C-0.689 6.974 -0.689 6.974 -2 3 C-3.65 2.67 -5.3 2.34 -7 2 C-7.33 13.88 -7.66 25.76 -8 38 C-8.33 38 -8.66 38 -9 38 C-9 25.79 -9 13.58 -9 1 C-6.018 -0.491 -3.284 -0.119 0 0 Z " fill="#06a2e1" transform="translate(318,229)" id="SvgjsPath1043"></path>
<path d="M0 0 C0.33 0.99 0.66 1.98 1 3 C-0.724 5.116 -1.667 5.928 -4.375 6.512 C-5.241 6.57 -6.108 6.628 -7 6.688 C-7.866 6.753 -8.733 6.819 -9.625 6.887 C-11.415 6.972 -13.208 7 -15 7 C-14.427 4.133 -14.139 3.139 -12 1 C-7.97 0.24 -4.098 -0.124 0 0 Z " fill="#06a2e1" transform="translate(113,232)" id="SvgjsPath1044"></path>
<path d="M0 0 C1.053 0.078 1.053 0.078 2.127 0.158 C3.856 0.288 5.584 0.424 7.312 0.562 C7.312 0.893 7.312 1.222 7.312 1.562 C2.692 1.562 -1.928 1.562 -6.688 1.562 C-6.688 10.472 -6.688 19.382 -6.688 28.562 C-7.018 28.562 -7.347 28.562 -7.688 28.562 C-7.707 27.785 -7.727 27.008 -7.748 26.208 C-7.843 22.7 -7.952 19.194 -8.062 15.688 C-8.093 14.464 -8.124 13.241 -8.156 11.98 C-8.195 10.814 -8.234 9.647 -8.273 8.445 C-8.305 7.367 -8.336 6.288 -8.369 5.176 C-8.434 2.405 -8.434 2.405 -10.688 0.562 C-6.994 -0.669 -3.807 -0.309 0 0 Z M-10.688 2.562 C-10.028 2.562 -9.368 2.562 -8.688 2.562 C-8.688 11.143 -8.688 19.723 -8.688 28.562 C-9.018 28.562 -9.347 28.562 -9.688 28.562 C-10.018 19.983 -10.347 11.403 -10.688 2.562 Z " fill="#06a2e1" transform="translate(238.6875,236.4375)" id="SvgjsPath1045"></path>
<path d="M0 0 C3.19 -0.651 5.832 -0.83 9 0 C13.303 4.231 15.909 9.394 18 15 C18.66 15 19.32 15 20 15 C20 15.66 20 16.32 20 17 C16.133 15.527 14.854 13.564 12.875 10 C10.775 6.247 10.775 6.247 8 3 C4.917 2.833 4.917 2.833 2 3 C2.928 4.392 2.928 4.392 3.875 5.812 C5.938 8.906 5.938 8.906 8 12 C7.67 12.99 7.34 13.98 7 15 C5.631 13.262 4.28 11.509 2.938 9.75 C2.183 8.775 1.429 7.801 0.652 6.797 C-1 4 -1 4 -0.746 1.641 C-0.5 1.099 -0.254 0.558 0 0 Z " fill="#06a2e1" transform="translate(264,229)" id="SvgjsPath1046"></path>
<path d="M0 0 C7.92 0 15.84 0 24 0 C24 0.33 24 0.66 24 1 C22.355 1.091 22.355 1.091 20.676 1.184 C19.221 1.268 17.767 1.353 16.312 1.438 C15.591 1.477 14.87 1.516 14.127 1.557 C10.333 1.782 6.713 2.128 3 3 C6.445 5.296 8.938 5.54 13 6 C13 6.66 13 7.32 13 8 C8.71 8 4.42 8 0 8 C0 5.36 0 2.72 0 0 Z " fill="#06a2e1" transform="translate(182,230)" id="SvgjsPath1047"></path>
<path d="M0 0 C5.601 6.935 7.396 14.447 9 23 C8.546 22.381 8.092 21.762 7.625 21.125 C6.029 18.941 6.029 18.941 4 17 C1.892 17.319 1.892 17.319 0 18 C-0.33 17.01 -0.66 16.02 -1 15 C-0.34 15 0.32 15 1 15 C1 14.34 1 13.68 1 13 C1.66 13 2.32 13 3 13 C2.711 12.278 2.423 11.556 2.125 10.812 C1.392 8.981 0.663 7.147 -0.062 5.312 C-0.954 3.027 -0.954 3.027 -2 1 C-1.34 0.67 -0.68 0.34 0 0 Z M3 19 C3.33 19.66 3.66 20.32 4 21 C3.34 20.67 2.68 20.34 2 20 C2.33 19.67 2.66 19.34 3 19 Z " fill="#06a2e1" transform="translate(373,230)" id="SvgjsPath1048"></path>
<path d="M0 0 C3.687 -0.088 7.374 -0.141 11.062 -0.188 C12.62 -0.225 12.62 -0.225 14.209 -0.264 C21.494 -0.333 26.873 0.037 32.375 5.25 C34.361 8.61 34.859 11.11 35 15 C34.062 17.438 34.062 17.438 33 19 C32.01 18.67 31.02 18.34 30 18 C30.33 17.34 30.66 16.68 31 16 C31.66 16 32.32 16 33 16 C32.589 10.758 31.874 7.664 28 4 C22.406 1.477 16.654 1.562 10.625 1.375 C9.603 1.336 8.581 1.298 7.527 1.258 C5.018 1.164 2.509 1.078 0 1 C0 0.67 0 0.34 0 0 Z " fill="#06a2e1" transform="translate(398,229)" id="SvgjsPath1049"></path>
<path d="M0 0 C0 2.31 0 4.62 0 7 C-5.619 8.951 -11.211 10.632 -17 12 C-16 9 -16 9 -13.938 7.875 C-10.278 6.785 -6.799 6.386 -3 6 C-3 4.35 -3 2.7 -3 1 C-5.31 0.67 -7.62 0.34 -10 0 C-10 -0.33 -10 -0.66 -10 -1 C-5.922 -1.927 -3.578 -2.34 0 0 Z " fill="#06a2e1" transform="translate(116,231)" id="SvgjsPath1050"></path>
<path d="M0 0 C1.522 3.043 1.239 5.654 1 9 C0.01 9.66 -0.98 10.32 -2 11 C-2.99 10.67 -3.98 10.34 -5 10 C-4.01 9.34 -3.02 8.68 -2 8 C-2.33 6.68 -2.66 5.36 -3 4 C-4.418 4.115 -5.834 4.243 -7.25 4.375 C-8.039 4.445 -8.828 4.514 -9.641 4.586 C-12.086 5.015 -13.848 5.786 -16 7 C-16.66 6.34 -17.32 5.68 -18 5 C-11.858 2.123 -6.873 0 0 0 Z " fill="#06a2e1" transform="translate(115,245)" id="SvgjsPath1051"></path>
<path d="M0 0 C2.646 -0.027 5.292 -0.047 7.938 -0.062 C8.692 -0.071 9.447 -0.079 10.225 -0.088 C12.15 -0.097 14.075 -0.052 16 0 C17 1 17 1 17.133 2.812 C17.13 3.534 17.128 4.256 17.125 5 C17.129 6.083 17.129 6.083 17.133 7.188 C17 9 17 9 16 10 C13.303 10.073 10.633 10.092 7.938 10.062 C6.8 10.056 6.8 10.056 5.639 10.049 C3.759 10.037 1.88 10.019 0 10 C0 6.7 0 3.4 0 0 Z M1 1 C1 3.64 1 6.28 1 9 C2.771 9.027 4.542 9.046 6.312 9.062 C7.299 9.074 8.285 9.086 9.301 9.098 C12.1 9.123 12.1 9.123 15 8 C15 6.02 15 4.04 15 2 C8.07 1.505 8.07 1.505 1 1 Z " fill="#06a2e1" transform="translate(120,245)" id="SvgjsPath1052"></path>
<path d="M0 0 C1.98 0 3.96 0 6 0 C-0.926 10.596 -0.926 10.596 -4 14 C-4.66 14 -5.32 14 -6 14 C-6 12.35 -6 10.7 -6 9 C-5.34 9 -4.68 9 -4 9 C-4 7.35 -4 5.7 -4 4 C-3.34 4 -2.68 4 -2 4 C-1.34 2.68 -0.68 1.36 0 0 Z M-8 14 C-6 15 -6 15 -6 15 Z " fill="#06a2e1" transform="translate(295,232)" id="SvgjsPath1053"></path>
<path d="M0 0 C0.99 0.495 0.99 0.495 2 1 C1.01 1.495 1.01 1.495 0 2 C0 1.34 0 0.68 0 0 Z M-5 5 C-4.34 5 -3.68 5 -3 5 C-3.739 10.026 -5.369 14.369 -9 18 C-9.719 20.318 -10.391 22.651 -11 25 C-8.36 25 -5.72 25 -3 25 C-3 25.33 -3 25.66 -3 26 C-5.97 26 -8.94 26 -12 26 C-13.143 17.674 -9.145 11.936 -5 5 Z " fill="#06a2e1" transform="translate(79,245)" id="SvgjsPath1054"></path>
<path d="M0 0 C2.97 0 5.94 0 9 0 C7.515 1.485 7.515 1.485 6 3 C5.34 3 4.68 3 4 3 C6.834 6.254 8.686 7.521 13 8 C13 8.33 13 8.66 13 9 C8.71 9 4.42 9 0 9 C0 6.03 0 3.06 0 0 Z " fill="#06a2e1" transform="translate(120,261)" id="SvgjsPath1055"></path>
<path d="M0 0 C0.799 0.018 1.598 0.036 2.422 0.055 C3.025 0.078 3.628 0.101 4.25 0.125 C3.59 1.775 2.93 3.425 2.25 5.125 C-1.05 5.125 -4.35 5.125 -7.75 5.125 C-8.08 4.135 -8.41 3.145 -8.75 2.125 C-5.688 0.341 -3.529 -0.104 0 0 Z M3.25 4.125 C3.91 4.125 4.57 4.125 5.25 4.125 C5.58 5.445 5.91 6.765 6.25 8.125 C4.93 7.465 3.61 6.805 2.25 6.125 C2.58 5.465 2.91 4.805 3.25 4.125 Z " fill="#06a2e1" transform="translate(243.75,231.875)" id="SvgjsPath1056"></path>
<path d="M0 0 C2.97 0 5.94 0 9 0 C8.67 4.29 8.34 8.58 8 13 C7.67 13 7.34 13 7 13 C7 9.7 7 6.4 7 3 C5.68 3.33 4.36 3.66 3 4 C1.884 7.714 1.688 11.392 1.438 15.25 C1.354 16.513 1.27 17.777 1.184 19.078 C1.123 20.042 1.062 21.007 1 22 C0.67 22 0.34 22 0 22 C0 14.74 0 7.48 0 0 Z " fill="#06a2e1" transform="translate(168,229)" id="SvgjsPath1057"></path>
<path d="M0 0 C0.66 0.33 1.32 0.66 2 1 C1.667 2.667 1.333 4.333 1 6 C0.835 6.866 0.67 7.732 0.5 8.625 C0 11 0 11 -1 14 C-1.639 14.309 -2.279 14.619 -2.938 14.938 C-5.455 16.234 -5.969 17.422 -7 20 C-7.66 20 -8.32 20 -9 20 C-7.321 15.632 -5.367 11.418 -3.375 7.188 C-2.888 6.148 -2.888 6.148 -2.391 5.088 C-1.595 3.391 -0.798 1.696 0 0 Z " fill="#06a2e1" transform="translate(354,248)" id="SvgjsPath1058"></path>
<path d="M0 0 C-0.495 0.619 -0.99 1.238 -1.5 1.875 C-3.192 3.839 -3.192 3.839 -3 6 C-7.517 7.369 -10.588 6.471 -15 5 C-12.707 1.561 -11.89 1.351 -8.062 0.25 C-7.187 -0.013 -6.312 -0.276 -5.41 -0.547 C-3 -1 -3 -1 0 0 Z " fill="#06a2e1" transform="translate(424,262)" id="SvgjsPath1059"></path>
<path d="M0 0 C3.248 1.083 4.043 1.89 6.188 4.438 C6.717 5.055 7.247 5.672 7.793 6.309 C9 8 9 8 9 10 C9.66 10 10.32 10 11 10 C12.91 12.082 12.91 12.082 15.062 14.812 C16.132 16.152 16.132 16.152 17.223 17.52 C19 20 19 20 20 23 C16.695 21.898 15.987 21.103 13.812 18.5 C10.543 14.625 7.153 10.887 3.699 7.176 C1.901 4.873 0.949 2.75 0 0 Z " fill="#06a2e1" transform="translate(148,230)" id="SvgjsPath1060"></path>
<path d="M0 0 C1.32 1.32 2.64 2.64 4 4 C3.01 4 2.02 4 1 4 C1 10.93 1 17.86 1 25 C-3.534 18.2 -1.977 9.764 -1 2 C-0.67 1.34 -0.34 0.68 0 0 Z " fill="#06a2e1" transform="translate(150,243)" id="SvgjsPath1061"></path>
<path d="M0 0 C1.98 0.99 1.98 0.99 4 2 C4 2.66 4 3.32 4 4 C4.99 4.33 5.98 4.66 7 5 C7.557 5.825 8.114 6.65 8.688 7.5 C11.969 11.047 14.266 10.763 19 11 C19 10.01 19 9.02 19 8 C19.99 8.33 20.98 8.66 22 9 C21.34 10.32 20.68 11.64 20 13 C13.185 13.717 13.185 13.717 9.91 11.734 C8.127 10.232 6.489 8.796 5 7 C5 6.34 5 5.68 5 5 C4.34 5 3.68 5 3 5 C3 4.34 3 3.68 3 3 C2.01 2.67 1.02 2.34 0 2 C0 1.34 0 0.68 0 0 Z " fill="#06a2e1" transform="translate(239,258)" id="SvgjsPath1062"></path>
<path d="M0 0 C0.741 0.009 1.481 0.018 2.244 0.027 C4.059 0.051 5.873 0.087 7.688 0.125 C7.688 0.455 7.688 0.785 7.688 1.125 C4.058 1.455 0.428 1.785 -3.312 2.125 C-3.312 3.115 -3.312 4.105 -3.312 5.125 C-9.938 5.25 -9.938 5.25 -13.312 4.125 C-13.312 3.465 -13.312 2.805 -13.312 2.125 C-8.902 -0.084 -4.823 -0.112 0 0 Z M-3.312 5.125 C-2.322 5.125 -1.333 5.125 -0.312 5.125 C-0.643 5.785 -0.972 6.445 -1.312 7.125 C-1.972 6.465 -2.632 5.805 -3.312 5.125 Z " fill="#06a2e1" transform="translate(198.3125,230.875)" id="SvgjsPath1063"></path>
<path d="M0 0 C7.59 0 15.18 0 23 0 C23 0.66 23 1.32 23 2 C23.66 2.33 24.32 2.66 25 3 C22.876 3.221 20.751 3.427 18.625 3.625 C17.442 3.741 16.258 3.857 15.039 3.977 C14.036 3.984 13.033 3.992 12 4 C11.34 3.34 10.68 2.68 10 2 C7.567 1.538 7.567 1.538 4.875 1.375 C3.965 1.3 3.055 1.225 2.117 1.148 C1.419 1.099 0.72 1.05 0 1 C0 0.67 0 0.34 0 0 Z " fill="#06a2e1" transform="translate(223,229)" id="SvgjsPath1064"></path>
<path d="M0 0 C2.31 0 4.62 0 7 0 C7 0.66 7 1.32 7 2 C6.01 2.495 6.01 2.495 5 3 C6.062 5.227 6.062 5.227 8 8 C5.36 8 2.72 8 0 8 C0 5.36 0 2.72 0 0 Z " fill="#06a2e1" transform="translate(121,246)" id="SvgjsPath1065"></path>
<path d="M0 0 C0 0.33 0 0.66 0 1 C-1.65 1.33 -3.3 1.66 -5 2 C-5.33 2.99 -5.66 3.98 -6 5 C-6.516 4.856 -7.031 4.711 -7.562 4.562 C-10.685 3.842 -13.826 3.427 -17 3 C-17 2.34 -17 1.68 -17 1 C-10.917 -0.704 -6.229 -1.133 0 0 Z " fill="#06a2e1" transform="translate(426,232)" id="SvgjsPath1066"></path>
<path d="M0 0 C0.66 0.33 1.32 0.66 2 1 C0.515 1.99 0.515 1.99 -1 3 C-1.33 2.34 -1.66 1.68 -2 1 C-1.34 0.67 -0.68 0.34 0 0 Z M1 2 C1.99 2.495 1.99 2.495 3 3 C2.01 3.495 2.01 3.495 1 4 C1 3.34 1 2.68 1 2 Z M3 3 C4.938 3.75 4.938 3.75 7 5 C7.75 7.125 7.75 7.125 8 9 C9.32 9.33 10.64 9.66 12 10 C12 10.33 12 10.66 12 11 C9.69 11 7.38 11 5 11 C3.235 7.912 3 6.767 3 3 Z " fill="#06a2e1" transform="translate(245,257)" id="SvgjsPath1067"></path>
<path d="M0 0 C0 1.32 0 2.64 0 4 C-3.3 4.33 -6.6 4.66 -10 5 C-10.66 4.01 -11.32 3.02 -12 2 C-4.714 -1.571 -4.714 -1.571 0 0 Z " fill="#06a2e1" transform="translate(114,249)" id="SvgjsPath1068"></path>
<path d="M0 0 C0.66 0.33 1.32 0.66 2 1 C1.979 1.928 1.959 2.856 1.938 3.812 C1.842 7.023 1.842 7.023 3 10 C2.01 10 1.02 10 0 10 C-2.108 7.112 -3 5.615 -3 2 C-2.01 1.34 -1.02 0.68 0 0 Z M4 3 C5.65 4.65 7.3 6.3 9 8 C8.01 8 7.02 8 6 8 C6 7.34 6 6.68 6 6 C5.34 6 4.68 6 4 6 C4 5.01 4 4.02 4 3 Z " fill="#06a2e1" transform="translate(155,242)" id="SvgjsPath1069"></path>
<path d="M0 0 C0.33 0.99 0.66 1.98 1 3 C0.408 3.459 -0.183 3.918 -0.793 4.391 C-4.884 7.567 -8.968 10.749 -13 14 C-12.524 9.717 -10.052 7.844 -7 5 C-6.113 4.072 -5.226 3.144 -4.312 2.188 C-2 0 -2 0 0 0 Z " fill="#06a2e1" transform="translate(95,242)" id="SvgjsPath1070"></path>
<path d="M0 0 C2.5 1.375 2.5 1.375 5 3 C5 3.66 5 4.32 5 5 C5.66 5 6.32 5 7 5 C7.959 9.62 7.961 13.681 7.562 18.375 C7.461 19.62 7.359 20.865 7.254 22.148 C7.128 23.56 7.128 23.56 7 25 C6.67 25 6.34 25 6 25 C5.986 23.842 5.972 22.685 5.957 21.492 C5.91 19.953 5.862 18.414 5.812 16.875 C5.807 16.114 5.801 15.354 5.795 14.57 C5.566 8.673 4.047 6.247 0 2 C0 1.34 0 0.68 0 0 Z " fill="#06a2e1" transform="translate(272,244)" id="SvgjsPath1071"></path>
<path d="M0 0 C0.66 0 1.32 0 2 0 C1.979 1.238 1.959 2.475 1.938 3.75 C1.932 6.664 2.07 9.21 3 12 C2.34 12 1.68 12 1 12 C0.67 13.32 0.34 14.64 0 16 C0 10.72 0 5.44 0 0 Z M1 16 C1.99 16.33 2.98 16.66 4 17 C3.01 17 2.02 17 1 17 C1 16.67 1 16.34 1 16 Z M1 18 C3.64 18.66 6.28 19.32 9 20 C9 20.33 9 20.66 9 21 C6.69 21 4.38 21 2 21 C1.67 20.01 1.34 19.02 1 18 Z " fill="#06a2e1" transform="translate(398,248)" id="SvgjsPath1072"></path>
<path d="M0 0 C3.203 0.267 4.794 0.833 7.312 2.875 C9.808 7.497 9.324 11.854 9 17 C8.67 17 8.34 17 8 17 C7.925 16.359 7.85 15.719 7.773 15.059 C6.766 8.431 4.858 4.613 0 0 Z " fill="#06a2e1" transform="translate(249,232)" id="SvgjsPath1073"></path>
<path d="M0 0 C2.333 -0.042 4.667 -0.041 7 0 C8 1 8 1 8.125 4.438 C8 8 8 8 7 10 C2.05 10 -2.9 10 -8 10 C-8 9.67 -8 9.34 -8 9 C-3.38 8.67 1.24 8.34 6 8 C5.67 6.02 5.34 4.04 5 2 C3.35 1.67 1.7 1.34 0 1 C0 0.67 0 0.34 0 0 Z " fill="#06a2e1" transform="translate(129,261)" id="SvgjsPath1074"></path>
<path d="M0 0 C1.666 -0.043 3.334 -0.041 5 0 C6 1 6 1 6.25 3.438 C6.168 4.283 6.085 5.129 6 6 C2.208 8.528 -0.809 8.224 -5.188 8.125 C-5.937 8.116 -6.687 8.107 -7.459 8.098 C-9.306 8.074 -11.153 8.038 -13 8 C-13 7.67 -13 7.34 -13 7 C-5.08 6.505 -5.08 6.505 3 6 C2.372 2.029 2.372 2.029 0 0 Z " fill="#06a2e1" transform="translate(419,238)" id="SvgjsPath1075"></path>
<path d="M0 0 C0.33 0.66 0.66 1.32 1 2 C0.34 1.67 -0.32 1.34 -1 1 C-0.67 0.67 -0.34 0.34 0 0 Z M-3 2 C-2.34 2.33 -1.68 2.66 -1 3 C-1.619 3.722 -2.237 4.444 -2.875 5.188 C-5.082 7.817 -5.082 7.817 -5.938 10.625 C-7.317 13.708 -9.037 14.519 -12 16 C-10.35 10.719 -6.907 5.907 -3 2 Z " fill="#06a2e1" transform="translate(96,251)" id="SvgjsPath1076"></path>
<path d="M0 0 C0.66 0 1.32 0 2 0 C1.67 0.66 1.34 1.32 1 2 C0.67 1.34 0.34 0.68 0 0 Z M2 2 C2.66 2.33 3.32 2.66 4 3 C5.067 7.625 5.466 10.852 3 15 C0.562 17.375 0.562 17.375 -2 19 C-2.99 18.67 -3.98 18.34 -5 18 C-4.031 17.484 -3.061 16.969 -2.062 16.438 C1.302 14.264 1.302 14.264 1.875 10.562 C2.031 6.281 2.031 6.281 2 2 Z " fill="#06a2e1" transform="translate(429,250)" id="SvgjsPath1077"></path>
<path d="M0 0 C0.66 0.66 1.32 1.32 2 2 C0.68 2.33 -0.64 2.66 -2 3 C-2 2.34 -2 1.68 -2 1 C-1.34 0.67 -0.68 0.34 0 0 Z M-9 3 C-6.69 3 -4.38 3 -2 3 C-2.33 3.99 -2.66 4.98 -3 6 C-8.94 6 -14.88 6 -21 6 C-21 5.67 -21 5.34 -21 5 C-17.04 5 -13.08 5 -9 5 C-9 4.34 -9 3.68 -9 3 Z " fill="#06a2e1" transform="translate(427,264)" id="SvgjsPath1078"></path>
<path d="M0 0 C1.485 0.99 1.485 0.99 3 2 C3 2.99 3 3.98 3 5 C3.66 5.33 4.32 5.66 5 6 C6.048 7.975 7.052 9.975 8 12 C5 12 5 12 2.312 9.375 C0.288 6.829 0.003 6.036 -0.312 2.625 C-0.209 1.759 -0.106 0.893 0 0 Z M6 7 C6.66 7 7.32 7 8 7 C7.67 7.66 7.34 8.32 7 9 C6.67 8.34 6.34 7.68 6 7 Z " fill="#06a2e1" transform="translate(156,243)" id="SvgjsPath1079"></path>
<path d="M0 0 C0.33 0 0.66 0 1 0 C1 2.64 1 5.28 1 8 C7.435 7.505 7.435 7.505 14 7 C14.66 5.02 15.32 3.04 16 1 C16.33 1 16.66 1 17 1 C17.042 3.333 17.041 5.667 17 8 C16 9 16 9 12.402 9.098 C10.914 9.091 9.426 9.079 7.938 9.062 C6.8 9.056 6.8 9.056 5.639 9.049 C3.759 9.037 1.88 9.019 0 9 C0 6.03 0 3.06 0 0 Z " fill="#06a2e1" transform="translate(120,230)" id="SvgjsPath1080"></path>
<path d="M0 0 C1.458 -0.054 2.916 -0.093 4.375 -0.125 C5.187 -0.148 5.999 -0.171 6.836 -0.195 C9 0 9 0 11 2 C7.04 7.94 7.04 7.94 3 14 C2.34 13.34 1.68 12.68 1 12 C3.31 8.7 5.62 5.4 8 2 C5.36 1.67 2.72 1.34 0 1 C0 0.67 0 0.34 0 0 Z " fill="#06a2e1" transform="translate(294,229)" id="SvgjsPath1081"></path>
<path d="M0 0 C1.98 1.65 3.96 3.3 6 5 C5.34 6.65 4.68 8.3 4 10 C3.34 9.67 2.68 9.34 2 9 C2 7.68 2 6.36 2 5 C0.004 3.004 -3.817 3.59 -6.562 3.438 C-7.273 3.394 -7.984 3.351 -8.717 3.307 C-10.478 3.2 -12.239 3.1 -14 3 C-14 2.67 -14 2.34 -14 2 C-9.38 2 -4.76 2 0 2 C0 1.34 0 0.68 0 0 Z " fill="#06a2e1" transform="translate(420,251)" id="SvgjsPath1082"></path>
<path d="M0 0 C2.64 0 5.28 0 8 0 C7.505 0.474 7.01 0.949 6.5 1.438 C4.885 2.759 4.885 2.759 5 4 C1.37 4 -2.26 4 -6 4 C-6 3.67 -6 3.34 -6 3 C-5.196 2.876 -4.391 2.752 -3.562 2.625 C-2.717 2.419 -1.871 2.213 -1 2 C-0.67 1.34 -0.34 0.68 0 0 Z M5 2 C5.99 2.33 6.98 2.66 8 3 C7.01 3 6.02 3 5 3 C5 2.67 5 2.34 5 2 Z " fill="#06a2e1" transform="translate(414,247)" id="SvgjsPath1083"></path>
<path d="M0 0 C0.66 0.99 1.32 1.98 2 3 C1.01 4.485 1.01 4.485 0 6 C-1.32 6 -2.64 6 -4 6 C-2.848 3.532 -1.952 1.952 0 0 Z M-7 10 C-5.02 10.99 -5.02 10.99 -3 12 C-3.99 12 -4.98 12 -6 12 C-6.33 11.34 -6.66 10.68 -7 10 Z " fill="#06a2e1" transform="translate(365,236)" id="SvgjsPath1084"></path>
<path d="M0 0 C0.66 0 1.32 0 2 0 C0.509 3.795 -1.757 5.61 -5 8 C-4.34 8.33 -3.68 8.66 -3 9 C-3 9.66 -3 10.32 -3 11 C-4.32 10.34 -5.64 9.68 -7 9 C-6.688 7.062 -6.688 7.062 -6 5 C-5.01 4.67 -4.02 4.34 -3 4 C-1.994 2.672 -0.993 1.338 0 0 Z " fill="#06a2e1" transform="translate(255,249)" id="SvgjsPath1085"></path>
<path d="M0 0 C2.64 0 5.28 0 8 0 C7.67 1.32 7.34 2.64 7 4 C4.03 3.67 1.06 3.34 -2 3 C-1.34 2.67 -0.68 2.34 0 2 C0 1.34 0 0.68 0 0 Z " fill="#06a2e1" transform="translate(330,264)" id="SvgjsPath1086"></path>
<path d="M0 0 C1 3 1 3 0.223 4.824 C-1.389 7.412 -1.389 7.412 -3 10 C-6.3 10 -9.6 10 -13 10 C-13 9.67 -13 9.34 -13 9 C-11.783 8.814 -10.566 8.629 -9.312 8.438 C-5.683 7.567 -4.14 6.427 -2 3.375 C-1.34 2.261 -0.68 1.147 0 0 Z " fill="#06a2e1" transform="translate(358,260)" id="SvgjsPath1087"></path>
<path d="M0 0 C0.99 0.33 1.98 0.66 3 1 C3.125 7.75 3.125 7.75 2 10 C-2.29 10 -6.58 10 -11 10 C-11 9.67 -11 9.34 -11 9 C-7.04 9 -3.08 9 1 9 C0.67 6.03 0.34 3.06 0 0 Z " fill="#06a2e1" transform="translate(113,261)" id="SvgjsPath1088"></path>
<path d="M0 0 C-0.33 0.99 -0.66 1.98 -1 3 C-2.664 3.674 -4.331 4.34 -6 5 C-7.353 6.314 -8.689 7.644 -10 9 C-10.66 9 -11.32 9 -12 9 C-9.962 3.813 -5.645 0 0 0 Z " fill="#06a2e1" transform="translate(113,261)" id="SvgjsPath1089"></path>
<path d="M0 0 C0 1.32 0 2.64 0 4 C-3.3 3.67 -6.6 3.34 -10 3 C-8.013 -0.974 -3.918 -0.087 0 0 Z " fill="#06a2e1" transform="translate(215,232)" id="SvgjsPath1090"></path>
<path d="M0 0 C2.56 2.56 3.66 5.219 5.188 8.5 C5.738 9.665 6.288 10.831 6.855 12.031 C7.233 13.011 7.611 13.991 8 15 C7.67 15.66 7.34 16.32 7 17 C6.34 15.68 5.68 14.36 5 13 C4.34 13 3.68 13 3 13 C1.701 8.669 0.656 4.485 0 0 Z " fill="#06a2e1" transform="translate(379,242)" id="SvgjsPath1091"></path>
<path d="M0 0 C1.32 0 2.64 0 4 0 C4.33 1.98 4.66 3.96 5 6 C4.01 5.01 3.02 4.02 2 3 C1.01 4.98 0.02 6.96 -1 9 C-1.33 9 -1.66 9 -2 9 C-2.125 5.625 -2.125 5.625 -2 2 C-1.34 1.34 -0.68 0.68 0 0 Z " fill="#06a2e1" transform="translate(366,240)" id="SvgjsPath1092"></path>
<path d="M0 0 C0.33 0.66 0.66 1.32 1 2 C-4.625 3.125 -4.625 3.125 -8 2 C-8 2.66 -8 3.32 -8 4 C-13.75 3.25 -13.75 3.25 -16 1 C-8.08 0.505 -8.08 0.505 0 0 Z " fill="#06a2e1" transform="translate(422,245)" id="SvgjsPath1093"></path>
<path d="M0 0 C0 0.33 0 0.66 0 1 C-1.258 1.041 -2.516 1.083 -3.812 1.125 C-6.017 1.316 -6.017 1.316 -8 2 C-9.892 4.867 -9.892 4.867 -11 8 C-12.485 8.99 -12.485 8.99 -14 10 C-11.323 0.938 -9.265 -0.699 0 0 Z " fill="#06a2e1" transform="translate(373,229)" id="SvgjsPath1094"></path>
<path d="M0 0 C-1.65 0.33 -3.3 0.66 -5 1 C-5 1.66 -5 2.32 -5 3 C-6.626 4.382 -8.293 5.719 -10 7 C-11 4 -11 4 -10 1 C-8.062 0.375 -8.062 0.375 -6 0 C-3.509 -1.245 -2.589 -0.777 0 0 Z " fill="#06a2e1" transform="translate(107,250)" id="SvgjsPath1095"></path>
<path d="M0 0 C2.97 0 5.94 0 9 0 C9 0.33 9 0.66 9 1 C7.02 1.33 5.04 1.66 3 2 C2.34 4.31 1.68 6.62 1 9 C0.67 9 0.34 9 0 9 C0 6.03 0 3.06 0 0 Z " fill="#06a2e1" transform="translate(120,261)" id="SvgjsPath1096"></path>
<path d="M0 0 C0 2.31 0 4.62 0 7 C-3 3.25 -3 3.25 -3 1 C-5.31 0.67 -7.62 0.34 -10 0 C-10 -0.33 -10 -0.66 -10 -1 C-5.922 -1.927 -3.578 -2.34 0 0 Z " fill="#06a2e1" transform="translate(116,231)" id="SvgjsPath1097"></path>
<path d="M0 0 C0.66 0.33 1.32 0.66 2 1 C1.01 1 0.02 1 -1 1 C-0.67 0.67 -0.34 0.34 0 0 Z M-3 3 C-2.34 3.99 -1.68 4.98 -1 6 C-1.33 6.66 -1.66 7.32 -2 8 C-2.99 7.67 -3.98 7.34 -5 7 C-4.34 5.68 -3.68 4.36 -3 3 Z M-1 5 C-0.34 5 0.32 5 1 5 C1 6.32 1 7.64 1 9 C0.34 8.67 -0.32 8.34 -1 8 C-1 7.01 -1 6.02 -1 5 Z " fill="#06a2e1" transform="translate(95,253)" id="SvgjsPath1098"></path>
<path d="M0 0 C2.743 3.2 4.63 6.005 6 10 C6.66 10 7.32 10 8 10 C8 10.66 8 11.32 8 12 C4.749 10.955 3.431 9.409 1.75 6.562 C0 3 0 3 0 0 Z " fill="#06a2e1" transform="translate(276,234)" id="SvgjsPath1099"></path>
<path d="M0 0 C3.275 0.974 4.762 1.691 6.875 4.438 C8 7 8 7 7 10 C3 5.25 3 5.25 3 3 C2.34 3 1.68 3 1 3 C0.67 2.01 0.34 1.02 0 0 Z " fill="#06a2e1" transform="translate(163,260)" id="SvgjsPath1100"></path>
<path d="M0 0 C1.98 0.99 1.98 0.99 4 2 C4 2.66 4 3.32 4 4 C4.99 4.33 5.98 4.66 7 5 C6.67 5.99 6.34 6.98 6 8 C5.67 7.01 5.34 6.02 5 5 C4.34 5 3.68 5 3 5 C3 4.34 3 3.68 3 3 C2.01 2.67 1.02 2.34 0 2 C0 1.34 0 0.68 0 0 Z " fill="#06a2e1" transform="translate(239,258)" id="SvgjsPath1101"></path>
<path d="M0 0 C0.66 0 1.32 0 2 0 C2.33 1.98 2.66 3.96 3 6 C4.65 5.67 6.3 5.34 8 5 C8 5.66 8 6.32 8 7 C5.125 7.125 5.125 7.125 2 7 C0 5 0 5 -0.125 2.375 C-0.084 1.591 -0.042 0.808 0 0 Z " fill="#06a2e1" transform="translate(223,262)" id="SvgjsPath1102"></path>
<path d="M0 0 C1.485 0.99 1.485 0.99 3 2 C3 2.66 3 3.32 3 4 C3.66 4 4.32 4 5 4 C5.33 6.64 5.66 9.28 6 12 C3.252 8.598 0 4.515 0 0 Z " fill="#06a2e1" transform="translate(373,251)" id="SvgjsPath1103"></path>
<path d="M0 0 C0.33 0.66 0.66 1.32 1 2 C-1.168 7.477 -1.168 7.477 -4.188 9.375 C-4.786 9.581 -5.384 9.787 -6 10 C-4.348 6.421 -2.217 3.252 0 0 Z " fill="#06a2e1" transform="translate(290,234)" id="SvgjsPath1104"></path>
<path d="M0 0 C0.99 0.33 1.98 0.66 3 1 C3 2.32 3 3.64 3 5 C3.66 5.66 4.32 6.32 5 7 C3.334 7.043 1.666 7.041 0 7 C-1 6 -1 6 -1.125 3.5 C-1 1 -1 1 0 0 Z " fill="#06a2e1" transform="translate(123,231)" id="SvgjsPath1105"></path>
<path d="M0 0 C1.667 1.667 3.333 3.333 5 5 C5.897 5.835 5.897 5.835 6.812 6.688 C8 8 8 8 8 10 C3.943 8.648 2.509 6.391 0 3 C0 2.01 0 1.02 0 0 Z " fill="#06a2e1" transform="translate(160,243)" id="SvgjsPath1106"></path>
<path d="M0 0 C0.33 0.99 0.66 1.98 1 3 C-0.434 5.043 -0.434 5.043 -2.438 7.188 C-3.096 7.903 -3.755 8.618 -4.434 9.355 C-4.951 9.898 -5.467 10.441 -6 11 C-6 6.789 -5.37 5.388 -2.438 2.312 C-1.633 1.549 -0.829 0.786 0 0 Z " fill="#06a2e1" transform="translate(363,234)" id="SvgjsPath1107"></path>
<path d="M0 0 C2.31 0 4.62 0 7 0 C7 1.65 7 3.3 7 5 C6.34 4.34 5.68 3.68 5 3 C2.429 2.352 2.429 2.352 0 2 C-0.33 2.66 -0.66 3.32 -1 4 C-0.67 2.68 -0.34 1.36 0 0 Z " fill="#06a2e1" transform="translate(311,229)" id="SvgjsPath1108"></path>
<path d="M0 0 C0.33 0 0.66 0 1 0 C1 1.65 1 3.3 1 5 C-2.3 5 -5.6 5 -9 5 C-9 4.01 -9 3.02 -9 2 C-4.545 2.99 -4.545 2.99 0 4 C-0.33 3.01 -0.66 2.02 -1 1 C-0.67 0.67 -0.34 0.34 0 0 Z " fill="#06a2e1" transform="translate(231,265)" id="SvgjsPath1109"></path>
<path d="M0 0 C0.66 0 1.32 0 2 0 C2 1.98 2 3.96 2 6 C-1.875 5.125 -1.875 5.125 -3 4 C-1.625 2 -1.625 2 0 0 Z " fill="#06a2e1" transform="translate(112,263)" id="SvgjsPath1110"></path>
<path d="M0 0 C0 0.99 0 1.98 0 3 C-0.66 3.66 -1.32 4.32 -2 5 C-2.99 4.67 -3.98 4.34 -5 4 C-3.35 2.68 -1.7 1.36 0 0 Z M-6 5 C-6 8 -6 8 -6 8 Z " fill="#06a2e1" transform="translate(84,240)" id="SvgjsPath1111"></path>
<path d="M0 0 C2.97 0 5.94 0 9 0 C8.67 0.99 8.34 1.98 8 3 C5.36 3 2.72 3 0 3 C0 2.01 0 1.02 0 0 Z " fill="#06a2e1" transform="translate(168,229)" id="SvgjsPath1112"></path>
<path d="M0 0 C0.66 0 1.32 0 2 0 C1.67 2.31 1.34 4.62 1 7 C0.01 7 -0.98 7 -2 7 C-1.424 4.614 -0.778 2.333 0 0 Z " fill="#06a2e1" transform="translate(77,260)" id="SvgjsPath1113"></path>
<path d="M0 0 C1.361 0.124 1.361 0.124 2.75 0.25 C-0.453 3.084 -3.031 3.771 -7.25 4.25 C-4.839 1.283 -3.903 0.3 0 0 Z " fill="#06a2e1" transform="translate(107.25,254.75)" id="SvgjsPath1114"></path>
<path d="M0 0 C0.99 0 1.98 0 3 0 C1.773 4.154 0.672 6.437 -2 10 C-1.34 6.7 -0.68 3.4 0 0 Z " fill="#06a2e1" transform="translate(361,250)" id="SvgjsPath1115"></path>
<path d="M0 0 C0.516 0.392 1.031 0.784 1.562 1.188 C-0.108 1.652 -0.108 1.652 -1.812 2.125 C-5.232 3.011 -5.232 3.011 -7.438 4.188 C-8.097 3.528 -8.757 2.868 -9.438 2.188 C-3.037 -1.012 -3.037 -1.012 0 0 Z " fill="#06a2e1" transform="translate(106.4375,247.8125)" id="SvgjsPath1116"></path>
<path d="M0 0 C-1.25 3.653 -1.671 4.781 -5 7 C-5.33 6.01 -5.66 5.02 -6 4 C-2.25 0 -2.25 0 0 0 Z " fill="#06a2e1" transform="translate(293,246)" id="SvgjsPath1117"></path>
<path d="M0 0 C0.66 0.33 1.32 0.66 2 1 C2 2.32 2 3.64 2 5 C1.34 5 0.68 5 0 5 C0 5.66 0 6.32 0 7 C-0.66 7 -1.32 7 -2 7 C-1.125 2.25 -1.125 2.25 0 0 Z " fill="#06a2e1" transform="translate(374,238)" id="SvgjsPath1118"></path>
<path d="M0 0 C1.458 -0.054 2.916 -0.093 4.375 -0.125 C5.187 -0.148 5.999 -0.171 6.836 -0.195 C9 0 9 0 11 2 C10.67 2.66 10.34 3.32 10 4 C9.34 4 8.68 4 8 4 C8 3.34 8 2.68 8 2 C5.36 1.67 2.72 1.34 0 1 C0 0.67 0 0.34 0 0 Z " fill="#06a2e1" transform="translate(294,229)" id="SvgjsPath1119"></path>
<path d="M0 0 C0.99 0 1.98 0 3 0 C3 1.65 3 3.3 3 5 C1.68 4.67 0.36 4.34 -1 4 C-0.67 2.68 -0.34 1.36 0 0 Z " fill="#06a2e1" transform="translate(131,263)" id="SvgjsPath1120"></path>
<path d="M0 0 C0.33 0 0.66 0 1 0 C1.188 3.375 1.188 3.375 1 7 C0.01 7.66 -0.98 8.32 -2 9 C-2.99 8.67 -3.98 8.34 -5 8 C-4.041 7.412 -4.041 7.412 -3.062 6.812 C-0.562 4.615 -0.35 3.242 0 0 Z " fill="#06a2e1" transform="translate(115,247)" id="SvgjsPath1121"></path>
<path d="M0 0 C0.66 0.33 1.32 0.66 2 1 C1.67 2.65 1.34 4.3 1 6 C0.01 6 -0.98 6 -2 6 C-1.34 4.02 -0.68 2.04 0 0 Z " fill="#06a2e1" transform="translate(354,248)" id="SvgjsPath1122"></path>
<path d="M0 0 C1.485 0.99 1.485 0.99 3 2 C2.34 3.32 1.68 4.64 1 6 C0.34 5.67 -0.32 5.34 -1 5 C-0.67 3.35 -0.34 1.7 0 0 Z " fill="#06a2e1" transform="translate(278,242)" id="SvgjsPath1123"></path>
<path d="M0 0 C2.154 2.622 3.401 4.644 4 8 C3.34 8 2.68 8 2 8 C0.02 4.535 0.02 4.535 -2 1 C-1.34 0.67 -0.68 0.34 0 0 Z " fill="#06a2e1" transform="translate(373,230)" id="SvgjsPath1124"></path>
<path d="M0 0 C0.66 0 1.32 0 2 0 C2.33 0.99 2.66 1.98 3 3 C0.525 4.485 0.525 4.485 -2 6 C-1.125 1.125 -1.125 1.125 0 0 Z " fill="#06a2e1" transform="translate(93,242)" id="SvgjsPath1125"></path>
<path d="M0 0 C0.66 0 1.32 0 2 0 C2 0.99 2 1.98 2 3 C-2.455 3.495 -2.455 3.495 -7 4 C-7 3.67 -7 3.34 -7 3 C-5.546 2.536 -5.546 2.536 -4.062 2.062 C-1.159 1.305 -1.159 1.305 0 0 Z " fill="#06a2e1" transform="translate(390,267)" id="SvgjsPath1126"></path>
<path d="M0 0 C0.33 0 0.66 0 1 0 C1 2.31 1 4.62 1 7 C0.01 6.01 -0.98 5.02 -2 4 C-1.34 2.68 -0.68 1.36 0 0 Z " fill="#06a2e1" transform="translate(363,243)" id="SvgjsPath1127"></path>
<path d="M0 0 C1.65 0 3.3 0 5 0 C5.33 1.32 5.66 2.64 6 4 C5.01 4.495 5.01 4.495 4 5 C2.68 3.35 1.36 1.7 0 0 Z " fill="#06a2e1" transform="translate(419,238)" id="SvgjsPath1128"></path>
<path d="M0 0 C-0.33 0.99 -0.66 1.98 -1 3 C-2.98 3 -4.96 3 -7 3 C-3.375 0 -3.375 0 0 0 Z " fill="#06a2e1" transform="translate(113,261)" id="SvgjsPath1129"></path>
<path d="M0 0 C0.66 0.66 1.32 1.32 2 2 C1.01 3.485 1.01 3.485 0 5 C-0.99 4.67 -1.98 4.34 -3 4 C-2.01 2.68 -1.02 1.36 0 0 Z " fill="#06a2e1" transform="translate(294,241)" id="SvgjsPath1130"></path>
<path d="M0 0 C0.99 0.33 1.98 0.66 3 1 C3 2.32 3 3.64 3 5 C2.01 4.67 1.02 4.34 0 4 C-0.33 3.01 -0.66 2.02 -1 1 C-0.67 0.67 -0.34 0.34 0 0 Z " fill="#06a2e1" transform="translate(131,232)" id="SvgjsPath1131"></path>
<path d="M0 0 C3 3.875 3 3.875 3 5 C1.02 5 -0.96 5 -3 5 C-2.01 3.35 -1.02 1.7 0 0 Z " fill="#06a2e1" transform="translate(348,264)" id="SvgjsPath1132"></path>
<path d="M0 0 C0.33 0.66 0.66 1.32 1 2 C0.67 2.66 0.34 3.32 0 4 C-0.99 3.67 -1.98 3.34 -3 3 C-2.01 2.01 -1.02 1.02 0 0 Z " fill="#06a2e1" transform="translate(431,244)" id="SvgjsPath1133"></path>
<path d="M0 0 C-0.33 0.99 -0.66 1.98 -1 3 C-2.32 3 -3.64 3 -5 3 C-5 2.34 -5 1.68 -5 1 C-3 0 -3 0 0 0 Z " fill="#06a2e1" transform="translate(91,237)" id="SvgjsPath1134"></path>
<path d="M0 0 C0.66 0 1.32 0 2 0 C1.34 2.31 0.68 4.62 0 7 C-0.33 7 -0.66 7 -1 7 C-1.043 5 -1.041 3 -1 1 C-0.67 0.67 -0.34 0.34 0 0 Z " fill="#06a2e1" transform="translate(238,250)" id="SvgjsPath1135"></path>
<path d="M0 0 C0.66 0.66 1.32 1.32 2 2 C0.515 2.99 0.515 2.99 -1 4 C-0.67 2.68 -0.34 1.36 0 0 Z " fill="#06a2e1" transform="translate(360,241)" id="SvgjsPath1136"></path>
<path d="M0 0 C0.99 0 1.98 0 3 0 C2.67 0.99 2.34 1.98 2 3 C0.68 2.67 -0.64 2.34 -2 2 C-1.34 1.34 -0.68 0.68 0 0 Z " fill="#06a2e1" transform="translate(92,235)" id="SvgjsPath1137"></path>
<path d="M0 0 C1.98 0.495 1.98 0.495 4 1 C2.35 1.66 0.7 2.32 -1 3 C-0.67 2.01 -0.34 1.02 0 0 Z " fill="#06a2e1" transform="translate(96,241)" id="SvgjsPath1138"></path>
<path d="M0 0 C0.99 0 1.98 0 3 0 C3 0.99 3 1.98 3 3 C2.01 3 1.02 3 0 3 C0 2.01 0 1.02 0 0 Z " fill="#06a2e1" transform="translate(132,250)" id="SvgjsPath1139"></path>
<path d="M0 0 C0.66 0.33 1.32 0.66 2 1 C1.67 1.99 1.34 2.98 1 4 C0.34 3.01 -0.32 2.02 -1 1 C-0.67 0.67 -0.34 0.34 0 0 Z " fill="#06a2e1" transform="translate(249,260)" id="SvgjsPath1140"></path>
<path d="M0 0 C0.66 0 1.32 0 2 0 C1.67 0.99 1.34 1.98 1 3 C0.34 3 -0.32 3 -1 3 C-0.67 2.01 -0.34 1.02 0 0 Z " fill="#06a2e1" transform="translate(346,265)" id="SvgjsPath1141"></path>
</svg>